<?xml version="1.0" standalone="no"?>
<!DOCTYPE svg PUBLIC "-//W3C//DTD SVG 20010904//EN"
 "http://www.w3.org/TR/2001/REC-SVG-20010904/DTD/svg10.dtd">
<svg version="1.0" xmlns="http://www.w3.org/2000/svg"
 width="64.000000pt" height="64.000000pt" viewBox="0 0 64.000000 64.000000"
 preserveAspectRatio="xMidYMid meet">

<g transform="translate(0.000000,64.000000) scale(0.100000,-0.100000)"
fill="#000000" stroke="none">
<path d="M310 495 c0 -14 5 -25 10 -25 6 0 10 11 10 25 0 14 -4 25 -10 25 -5
0 -10 -11 -10 -25z"/>
<path d="M222 465 c6 -14 15 -25 20 -25 11 0 10 7 -2 31 -16 28 -32 23 -18 -6z"/>
<path d="M400 469 c-15 -28 -4 -38 15 -13 17 22 19 34 5 34 -5 0 -14 -9 -20
-21z"/>
<path d="M238 401 c-30 -27 -33 -35 -33 -85 l0 -56 -47 0 c-27 0 -48 -4 -48
-10 0 -6 77 -10 210 -10 133 0 210 4 210 10 0 6 -22 10 -48 10 l-48 0 4 35 c9
79 -41 135 -119 135 -40 0 -55 -5 -81 -29z m117 5 c45 -19 67 -55 63 -103 l-3
-38 -95 0 -95 0 -3 41 c-2 32 2 48 23 72 14 17 36 33 48 35 12 2 23 5 25 6 1
0 18 -5 37 -13z"/>
<path d="M140 412 c0 -11 41 -34 48 -27 4 4 -2 13 -12 21 -22 15 -36 18 -36 6z"/>
<path d="M464 406 c-10 -8 -16 -17 -12 -21 7 -7 48 16 48 27 0 12 -14 9 -36
-6z"/>
<path d="M110 310 c0 -5 11 -10 24 -10 14 0 28 5 31 10 4 6 -7 10 -24 10 -17
0 -31 -4 -31 -10z"/>
<path d="M470 310 c0 -5 14 -10 30 -10 17 0 30 5 30 10 0 6 -13 10 -30 10 -16
0 -30 -4 -30 -10z"/>
<path d="M155 200 c-4 -6 16 -10 51 -10 49 0 62 -4 86 -27 l28 -27 28 27 c24
23 37 27 86 27 35 0 55 4 51 10 -3 5 -29 10 -58 10 -42 0 -56 -5 -79 -27 l-28
-27 -28 27 c-23 22 -37 27 -79 27 -29 0 -55 -4 -58 -10z"/>
<path d="M208 143 c12 -2 32 -2 45 0 12 2 2 4 -23 4 -25 0 -35 -2 -22 -4z"/>
<path d="M388 143 c12 -2 32 -2 45 0 12 2 2 4 -23 4 -25 0 -35 -2 -22 -4z"/>
</g>
</svg>
